<svg xmlns="http://www.w3.org/2000/svg" viewBox="0 0 118 115.82"><defs><style>.cls-1{fill:#211b59;}</style></defs><g id="Calque_2" data-name="Calque 2"><g id="Calque_1-2" data-name="Calque 1"><path class="cls-1" d="M91,13V41.2l0,4.47a5.11,5.11,0,0,1-2.54,4.41L76.36,57c2.68-3.91,3.36-6.29,3.58-15.69l0-22.7a6.92,6.92,0,0,0-3.48-6L63.87,5.32,71.51.91a6.79,6.79,0,0,1,6.78,0l8.52,4.91A8.34,8.34,0,0,1,91,13Z"/><path class="cls-1" d="M118,46.11V56a8.33,8.33,0,0,1-4.14,7.2L89.71,77.1l-.2.09-3.94,2.23,0,0a5.07,5.07,0,0,1-5,0l-12-6.92c4.75.36,7.15-.25,15.36-4.74l19.69-11.37a7,7,0,0,0,3.45-6V35.85l7.67,4.41A6.8,6.8,0,0,1,118,46.11Z"/><path class="cls-1" d="M102.12,88.44v8.82a6.75,6.75,0,0,1-3.4,5.85l-8.52,4.94a8.41,8.41,0,0,1-8.3,0l-24.15-14a.55.55,0,0,1-.17-.11l-3.92-2.29a5.09,5.09,0,0,1-2.53-4.41V73.41c2,4.27,3.75,6,11.77,10.92L82.59,95.69a6.9,6.9,0,0,0,6.92,0Z"/><path class="cls-1" d="M54.13,110.5l-7.64,4.41a6.74,6.74,0,0,1-6.78,0L31.19,110a8.26,8.26,0,0,1-4.14-7.19V74.65l0-4.47a5.12,5.12,0,0,1,2.56-4.41l12-6.95c-2.67,3.94-3.36,6.32-3.56,15.69V97.24a6.94,6.94,0,0,0,3.48,6Z"/><path class="cls-1" d="M49.53,43.35c-4.75-.36-7.12.25-15.36,4.74L14.51,59.46a6.92,6.92,0,0,0-3.48,6V80L3.39,75.59A6.81,6.81,0,0,1,0,69.71V59.9a8.26,8.26,0,0,1,4.14-7.2l24.18-14a1.18,1.18,0,0,1,.22-.14l3.89-2.21h0a5.2,5.2,0,0,1,5.07,0Z"/><path class="cls-1" d="M66.87,28.57V42.44c-2-4.3-3.75-6.07-11.77-10.95L35.41,20.13a7,7,0,0,0-6.92,0L15.88,27.41V18.59a6.8,6.8,0,0,1,3.4-5.88L27.8,7.8a8.26,8.26,0,0,1,8.3,0l24.16,14,.16.08,3.92,2.32A5.09,5.09,0,0,1,66.87,28.57Z"/></g></g></svg>